# xmcd CD database file
# Generated: Sun Nov 2 01:52:58 2003 by KSCD
# 
# Track frame offsets:
#       150
#       20200
#       38343
#       59485
#       77210
#       93260
#       109358
#       127095
#       147884
#       167975
#       184115
#       203675
#       221350
#       239466
#       256566
#       283859
#
# Disc length: 4394 seconds
#
# Revision: 3
# Processed by: cddbd v1.4PL0 Copyright (c) Steve Scherf et al.
# Submitted via: Kscd 1.3.3
#
DISCID=e8112810
DTITLE=buke saltiklar - slow
DYEAR=1900
DGENRE=
TTITLE0=slow
TTITLE1=
TTITLE2=
TTITLE3=
TTITLE4=
TTITLE5=
TTITLE6=
TTITLE7=
TTITLE8=
TTITLE9=
TTITLE10=
TTITLE11=
TTITLE12=
TTITLE13=
TTITLE14=
TTITLE15=
EXTD=
EXTT0=
EXTT1=
EXTT2=
EXTT3=
EXTT4=
EXTT5=
EXTT6=
EXTT7=
EXTT8=
EXTT9=
EXTT10=
EXTT11=
EXTT12=
EXTT13=
EXTT14=
EXTT15=
PLAYORDER=
